<svg width="215" height="39" viewBox="0 0 215 39" fill="none" xmlns="http://www.w3.org/2000/svg">
<path d="M71.0889 29.1748H65.8516L64.5361 24.877H57.6729L56.2373 29.1748H51L57.3857 10H65.1582L71.0889 29.1748ZM86.0566 10C88.1133 10 89.5488 11.4327 89.5488 13.4863V16.9961H84.7656V14.2979H76.8975V24.877H84.7656V21.7725H89.5488V25.6885C89.5488 27.7421 88.1133 29.1748 86.0566 29.1748H75.6064C73.5498 29.1748 72.1143 27.7421 72.1143 25.6885V13.4863C72.1143 11.4327 73.5498 10 75.6064 10H86.0566ZM108.848 14.3223H102.463V29.1748H97.6582V14.3223H91.2725V10.0234H108.848V14.3223ZM126.26 14.2979H115.379V18.334H125.423V22.6797H115.379V29.1748H110.596V13.4863C110.596 11.4328 112.03 10.0002 114.087 10H126.26V14.2979ZM133.289 29.1748H128.267V10H133.289V29.1748ZM147.063 19.7666C147.685 20.8173 148.068 21.5096 148.666 22.6318V10H153.449V29.1748H147.829L143.596 21.3184C142.711 19.6709 142.161 18.6676 141.324 17.0439V29.1748H136.11V10H141.73L147.063 19.7666ZM170.165 10C172.557 10 174.23 11.6716 174.23 14.0596V25.1152C174.23 27.5032 172.557 29.1748 170.165 29.1748H156.271V10H170.165ZM193.721 14.2979H181.739V17.3545H193.338V21.2949H181.739V24.877H193.721V29.1748H180.448C178.392 29.1748 176.957 27.7421 176.957 25.6885V13.4863C176.957 11.4327 178.392 10 180.448 10H193.721V14.2979ZM209.601 10C211.657 10 213.092 11.4327 213.092 13.4863V19.623C213.092 21.2945 212.136 22.5369 210.701 22.9668L214.527 29.1748H208.907L205.416 23.1094H201.039V29.1748H196.256V10H209.601ZM161.054 24.877H169.448V14.3457H161.054V24.877ZM61.3057 13.6777C61.0187 14.8716 60.5642 16.2808 60.1816 17.4746L59.0098 20.9131H63.3389L62.3105 17.4746C61.9758 16.2808 61.5448 14.8716 61.3057 13.6777ZM201.039 14.2979V18.8115H208.31V14.2979H201.039Z" fill="#0B2A60"/>
<g clip-path="url(#clip0_176_397)">
<path d="M17.4037 35.9551C12.4415 34.88 8.49228 32.1622 5.82485 28.6487C6.51645 28.7133 10.4816 28.7121 10.6795 28.5925L19.8988 7.05385L19.9416 6.58889C18.1173 6.66455 16.2649 6.48637 14.4442 6.58889C13.9139 6.61818 13.3775 6.74143 12.8374 6.67309L4.59072 26.6509C4.58706 26.7143 4.73368 27.0109 4.92308 27.355C-0.234605 19.2773 0.900551 7.88494 11.1451 2.08321C11.8513 1.68292 13.6451 1.36806 13.4288 0.478394C7.07242 2.49936 1.3441 8.53053 0.277375 15.2183C-2.15178 30.4426 11.8159 41.7715 26.3688 38.4057C32.8633 36.9034 38.9582 31.8863 41 25.4817C36.8687 34.3137 26.667 37.9627 17.4037 35.9563V35.9551Z" fill="#0B2A60"/>
<path d="M14.5273 5.997C14.5737 5.97747 14.8047 5.30992 15.0344 5.23669C15.3277 5.14394 20.858 5.17323 21.1244 5.3209L31.0622 28.5925C31.2773 28.7231 35.8594 28.7243 36.094 28.6352C36.2016 28.595 37.239 26.7802 37.2353 26.6497C33.5781 17.7664 30.0969 8.80511 26.1575 0.0427136L15.9655 0L13.3017 5.9555C13.3408 6.00432 14.4467 6.03239 14.5285 5.99822L14.5273 5.997Z" fill="#0B2A60"/>
<path d="M18.7172 16.4557L22.4807 24.2687C22.7251 24.3627 27.4588 24.337 27.7239 24.2687C27.895 24.2247 28.275 23.7952 28.2738 23.6353L20.7884 6.69873L18.716 16.4545L18.7172 16.4557Z" fill="#0B2A60"/>
</g>
<defs>
<clipPath id="clip0_176_397">
<rect width="41" height="39" fill="white"/>
</clipPath>
</defs>
</svg>
