<svg width="226" height="54" viewBox="0 0 226 54" fill="none" xmlns="http://www.w3.org/2000/svg">
<path d="M28.2868 1.408C31.4868 2.752 35.5828 5.952 35.7747 7.296C34.3027 6.976 32.7668 6.848 31.6147 6.848C19.9667 6.848 8.63875 24.96 8.63875 40.256C8.63875 46.912 10.9427 50.112 15.1667 50.112C19.3267 50.112 24.9588 46.784 29.1188 41.792C35.0708 34.688 38.7827 22.976 38.7827 12.544C38.7827 8.384 38.3988 7.104 38.2708 6.208C40.3828 7.232 43.5828 8.704 43.5828 16C43.5828 27.968 37.5667 39.36 29.6307 46.272C24.5107 50.752 18.3667 53.376 13.0547 53.376C5.24675 53.376 0.958749 48.256 0.958749 38.592C0.958749 22.912 11.8387 0.639999 24.4468 0.639999C25.7907 0.639999 26.9427 0.831997 28.2868 1.408ZM60.0223 46.592C58.4223 45.248 57.9743 42.88 57.9743 41.408C57.9743 40.448 58.1023 39.68 58.2943 39.104C57.5903 39.04 52.9823 45.632 51.5743 47.296C50.4863 48.448 49.3983 49.216 48.8223 49.28C46.1343 49.152 42.5503 47.296 41.8463 44.288C41.8463 41.92 41.9743 40.64 42.3583 38.848C43.8943 32.384 48.4383 21.568 53.8143 17.664C55.2863 17.664 58.2303 18.176 59.5103 19.648C58.7423 20.48 55.2222 25.344 51.3823 34.432C50.5503 36.352 48.6943 42.176 48.6943 44.416C48.6943 45.056 49.0143 45.44 49.1423 45.568C50.4223 45.056 52.1503 42.944 55.6703 38.144C57.3983 35.776 60.5343 31.872 61.9423 28.096C62.7103 25.984 64.0543 22.272 66.9343 19.52C69.1743 19.52 72.2463 20.608 73.0143 21.568C69.8783 29.056 64.9503 36.224 64.9503 42.944C64.9503 46.592 66.3583 48 66.3583 48.832C66.3583 49.024 66.1023 49.088 66.1023 49.088C64.9503 49.088 62.0063 47.936 60.0223 46.592ZM71.1033 46.72C71.9353 41.728 75.7113 29.568 78.7833 22.272C79.8713 19.648 80.6393 18.304 81.6633 17.28C84.0313 17.664 87.0393 19.136 88.0633 20.352C85.7593 23.04 84.1593 26.304 82.3673 31.744C86.9113 27.648 90.3673 24.192 93.4393 19.584C93.7593 19.328 94.0793 19.264 94.7833 19.264C95.9993 19.264 97.2793 19.712 97.6633 20.352C96.8953 22.4 96.5113 24.384 96.5113 26.432C96.5113 28.288 96.7673 29.696 97.3433 30.656C97.2793 31.168 95.9993 32.896 94.7193 34.176C92.4153 33.024 90.4953 30.784 89.6633 28.288C81.5993 33.856 78.8473 38.4 76.3513 50.176C74.8153 50.048 71.6793 48 71.1033 46.72ZM110.886 36.736C110.886 27.072 119.59 17.664 128.55 17.664C132.966 17.664 135.462 19.968 135.462 24.064C135.462 27.968 133.03 31.808 130.598 31.808C129.574 31.808 128.422 31.104 127.718 30.08C130.598 27.456 132.006 25.088 132.006 22.976C132.006 21.76 131.494 21.12 130.534 21.12C128.87 21.12 125.99 22.912 123.622 25.536C119.974 29.632 117.99 34.752 117.99 40.192C117.99 43.648 118.758 45.696 120.294 46.4C122.79 46.08 127.398 43.84 131.366 40.896C131.686 41.152 132.006 41.792 132.006 42.176C129.19 45.696 123.942 49.344 121.062 49.856C115.43 49.344 110.886 43.456 110.886 36.736ZM134.241 46.72C135.073 41.728 138.849 29.568 141.921 22.272C143.009 19.648 143.777 18.304 144.801 17.28C147.169 17.664 150.177 19.136 151.201 20.352C148.897 23.04 147.297 26.304 145.505 31.744C150.049 27.648 153.505 24.192 156.577 19.584C156.897 19.328 157.217 19.264 157.921 19.264C159.137 19.264 160.417 19.712 160.801 20.352C160.033 22.4 159.649 24.384 159.649 26.432C159.649 28.288 159.905 29.696 160.481 30.656C160.417 31.168 159.137 32.896 157.857 34.176C155.553 33.024 153.633 30.784 152.801 28.288C144.737 33.856 141.985 38.4 139.489 50.176C137.953 50.048 134.817 48 134.241 46.72ZM182.901 21.504C182.261 32 176.693 36.16 165.813 40.512C165.813 41.024 165.749 41.6 165.749 42.176C165.749 44.352 166.261 47.296 168.693 47.296C173.301 47.296 177.717 42.688 180.405 39.808C180.853 40.192 181.173 40.512 181.493 40.896C177.653 45.952 172.725 49.6 168.693 50.496C162.805 49.856 159.349 45.824 159.349 40.704C159.349 30.208 168.949 17.856 177.397 17.856C179.317 18.112 181.173 19.328 182.901 21.504ZM178.485 23.616C173.813 24.256 168.373 30.144 166.325 38.08C173.109 34.688 178.165 29.44 178.485 23.616ZM184.84 45.376C184.84 41.984 186.568 32.256 188.232 26.24C189.32 22.272 191.752 19.968 195.208 19.968C197.064 19.968 199.304 20.608 199.624 21.568C194.632 25.6 194.056 34.304 193.096 40.64C195.912 36.928 198.536 33.728 200.456 31.936C203.144 29.44 203.656 28.096 204.36 26.112C204.872 24.576 205.448 22.272 207.112 20.608C207.368 20.544 207.752 20.544 208.2 20.544C209.864 20.544 212.36 20.928 212.552 21.952C209.8 25.472 207.88 38.656 206.728 44.8C207.496 44.48 211.848 39.488 214.472 35.456C217.736 30.464 218.504 27.328 220.104 18.944C220.616 18.24 222.728 17.728 224.2 17.728C224.84 17.728 225.352 17.856 225.608 18.048C224.776 27.52 221.192 32.576 213.32 41.024C210.12 44.48 205.256 49.792 203.464 49.792C201.48 49.792 200.072 48.064 200.072 45.696C200.072 43.2 200.264 41.6 200.776 39.552C201.736 35.776 201.992 34.688 202.12 33.28C200.776 33.92 197.384 38.144 195.784 40.192C192.52 44.544 191.304 46.784 188.616 50.432C185.928 49.6 184.84 47.872 184.84 45.376Z" fill="black"/>
</svg>
