<svg width="41" height="39" viewBox="0 0 41 39" fill="none" xmlns="http://www.w3.org/2000/svg">
<g clip-path="url(#clip0_176_437)">
<path d="M17.4037 35.9551C12.4416 34.88 8.49234 32.1622 5.82491 28.6487C6.51651 28.7133 10.4816 28.7121 10.6796 28.5925L19.8989 7.05385L19.9416 6.58889C18.1173 6.66455 16.2649 6.48637 14.4443 6.58889C13.914 6.61818 13.3775 6.74143 12.8375 6.67309L4.59078 26.6509C4.58712 26.7143 4.73375 27.0109 4.92314 27.355C-0.234544 19.2773 0.900612 7.88494 11.1451 2.08321C11.8514 1.68292 13.6451 1.36806 13.4289 0.478394C7.07248 2.49936 1.34416 8.53053 0.277437 15.2183C-2.15172 30.4426 11.8159 41.7715 26.3689 38.4057C32.8634 36.9034 38.9582 31.8863 41.0001 25.4817C36.8688 34.3137 26.667 37.9627 17.4037 35.9563V35.9551Z" fill="#0B2A60"/>
<path d="M14.5273 5.997C14.5738 5.97747 14.8047 5.30992 15.0344 5.23669C15.3277 5.14394 20.8581 5.17323 21.1244 5.3209L31.0622 28.5925C31.2773 28.7231 35.8595 28.7243 36.0941 28.6352C36.2016 28.595 37.239 26.7802 37.2353 26.6497C33.5781 17.7664 30.0969 8.80511 26.1575 0.0427136L15.9655 0L13.3018 5.9555C13.3409 6.00432 14.4467 6.03239 14.5286 5.99822L14.5273 5.997Z" fill="#0B2A60"/>
<path d="M18.7173 16.4557L22.4808 24.2687C22.7252 24.3627 27.4588 24.337 27.724 24.2687C27.8951 24.2247 28.2751 23.7952 28.2739 23.6353L20.7884 6.69873L18.7161 16.4545L18.7173 16.4557Z" fill="#0B2A60"/>
</g>
<defs>
<clipPath id="clip0_176_437">
<rect width="41" height="39" fill="white"/>
</clipPath>
</defs>
</svg>
